# xmcd
#
# Track frame offsets:
#	150
#	13867
#	28902
#	43840
#	58605
#	75307
#	93042
#	106610
#	121342
#	135012
#	150447
#	162975
#
# Disc length: 2474 seconds
#
# Revision: 1
# Processed by: cddbd v1.5.2PL0 Copyright (c) Steve Scherf et al.
# Submitted via: EasyCDDAExtractor 2010.6.0.0
#
DISCID=8009a80c
DTITLE=KEVIN HENDERSON - LIGHTS OF HEAVEN
DYEAR=1995
DGENRE=COUNTRY
TTITLE0=GOLD IN HER EYES
TTITLE1=IF THE DEVIL AIN'T MARRIED
TTITLE2=TWO OF A KIND
TTITLE3=DO SHE DO
TTITLE4=PAY THE PRICE
TTITLE5=LIGHT OF HEAVEN
TTITLE6=CANDLE ON THE TABLE
TTITLE7=BELLY UP TO THE BAR
TTITLE8=THE ACTREES
TTITLE9=DARLING I DO
TTITLE10=CAJUN JUBILEE
TTITLE11=CHILDREN OF BROKEN DREAMS
EXTD=
EXTT0=
EXTT1=
EXTT2=
EXTT3=
EXTT4=
EXTT5=
EXTT6=
EXTT7=
EXTT8=
EXTT9=
EXTT10=
EXTT11=
PLAYORDER=
